<?xml version="1.0" standalone="no"?>
<!DOCTYPE svg PUBLIC "-//W3C//DTD SVG 20010904//EN"
 "http://www.w3.org/TR/2001/REC-SVG-20010904/DTD/svg10.dtd">
<svg version="1.0" xmlns="http://www.w3.org/2000/svg"
 width="362.000000pt" height="362.000000pt" viewBox="0 0 362.000000 362.000000"
 preserveAspectRatio="xMidYMid meet">
<metadata>
Created by potrace 1.11, written by Peter Selinger 2001-2013
</metadata>
<g transform="translate(0.000000,362.000000) scale(0.100000,-0.100000)"
fill="#000000" stroke="none">
<path d="M1650 3334 c-185 -24 -350 -73 -515 -155 -431 -214 -735 -614 -831
-1094 -26 -126 -26 -424 0 -550 37 -185 147 -465 194 -492 18 -11 22 -7 48 45
15 31 33 64 40 72 7 8 13 18 13 23 0 4 12 30 26 57 14 28 22 50 18 50 -3 0 2
10 13 23 31 35 47 74 41 97 -7 26 2 52 14 44 5 -3 9 1 9 9 0 8 7 20 15 27 8 7
13 16 10 20 -3 5 6 31 20 58 14 27 25 55 25 61 0 6 4 11 9 11 5 0 15 16 22 35
7 19 16 35 20 35 4 0 12 14 19 30 7 17 17 30 22 30 5 0 6 5 3 10 -3 6 -1 10 5
10 6 0 9 4 5 9 -3 6 2 14 12 19 14 9 15 13 4 26 -11 13 -11 16 0 16 18 1 46
40 51 71 1 13 8 29 13 34 6 6 8 9 6 8 -14 -8 -29 21 -21 41 9 25 2 76 -11 76
-5 0 -9 7 -9 15 0 9 -8 27 -17 41 -12 19 -13 28 -5 33 15 9 12 60 -3 58 -5 -1
-9 9 -8 23 10 120 10 129 -3 134 -20 8 -17 28 4 22 16 -5 38 30 70 114 6 14
20 35 31 48 17 17 18 22 6 22 -26 0 -16 17 14 23 21 4 30 13 33 29 2 12 12 27
24 33 11 5 28 18 38 28 10 9 22 14 28 11 7 -4 8 -2 4 4 -4 7 -1 12 9 12 8 0
18 7 21 15 4 8 10 12 15 9 5 -3 9 0 9 6 0 7 7 9 16 6 8 -3 13 -2 10 3 -6 10
26 21 61 21 12 0 27 8 33 18 9 16 11 16 21 -1 5 -9 15 -15 20 -11 6 3 40 7 77
9 49 3 74 0 91 -12 13 -8 20 -10 16 -3 -5 9 -2 10 13 6 15 -5 20 -2 18 10 -2
31 24 27 35 -5 10 -28 16 -33 35 -30 3 0 20 -11 39 -25 18 -14 38 -26 44 -26
6 0 11 -4 11 -10 0 -5 7 -10 16 -10 8 0 13 -4 10 -9 -4 -5 3 -7 14 -4 11 3 20
1 20 -5 0 -5 10 -13 23 -17 27 -10 167 -12 161 -3 -4 6 82 17 138 18 15 0 30
4 33 10 4 6 11 8 16 4 6 -3 19 4 30 17 10 12 19 17 19 11 0 -11 18 -11 35 0 6
3 21 6 35 6 14 0 39 6 55 12 27 11 76 17 173 22 19 1 32 7 32 15 0 16 17 17
22 2 4 -13 24 -13 136 -3 45 4 82 11 82 15 0 5 6 6 13 4 24 -9 87 -12 87 -5 0
4 16 4 35 0 33 -7 34 -7 23 14 -20 36 -169 174 -263 241 -167 120 -398 219
-605 260 -83 16 -364 28 -440 19z m345 -34 c3 -5 1 -10 -4 -10 -6 0 -11 5 -11
10 0 6 2 10 4 10 3 0 8 -4 11 -10z m-245 -30 c13 -9 13 -10 0 -10 -8 0 -22 5
-30 10 -13 9 -13 10 0 10 8 0 22 -5 30 -10z m390 -10 c24 -8 24 -8 -7 -9 -17
-1 -35 4 -38 9 -7 11 9 11 45 0z m-265 -10 c3 -5 1 -10 -4 -10 -6 0 -11 5 -11
10 0 6 2 10 4 10 3 0 8 -4 11 -10z m-455 -56 c0 -8 -4 -14 -9 -14 -5 0 -18 -3
-28 -6 -17 -5 -17 -5 0 9 9 8 17 20 17 26 0 7 5 9 10 6 6 -3 10 -13 10 -21z
m-93 -19 c-4 -8 -11 -15 -17 -15 -7 0 -7 6 0 21 13 23 26 19 17 -6z m889 10
c10 -8 14 -15 8 -15 -5 0 -19 7 -30 15 -10 8 -14 15 -8 15 5 0 19 -7 30 -15z
m-706 -25 c0 -5 -11 -10 -25 -10 -14 0 -25 5 -25 10 0 6 11 10 25 10 14 0 25
-4 25 -10z m330 6 c0 -3 -4 -8 -10 -11 -5 -3 -10 -1 -10 4 0 6 5 11 10 11 6 0
10 -2 10 -4z m-390 -66 c0 -6 -9 -5 -20 2 -11 7 -20 16 -20 21 0 4 9 3 20 -3
11 -6 20 -15 20 -20z m250 -10 c0 -5 -4 -10 -10 -10 -5 0 -10 5 -10 10 0 6 5
10 10 10 6 0 10 -4 10 -10z m-549 -23 c-10 -9 -11 -8 -5 6 3 10 9 15 12 12 3
-3 0 -11 -7 -18z m979 13 c0 -5 -2 -10 -4 -10 -3 0 -8 5 -11 10 -3 6 -1 10 4
10 6 0 11 -4 11 -10z m-1115 -20 c3 -5 1 -10 -4 -10 -6 0 -11 5 -11 10 0 6 2
10 4 10 3 0 8 -4 11 -10z m255 0 c0 -5 -4 -10 -10 -10 -5 0 -10 5 -10 10 0 6
5 10 10 10 6 0 10 -4 10 -10z m1365 -11 c14 -14 -16 -10 -50 6 l-30 15 35 -6
c19 -3 39 -10 45 -15z m-1165 1 c0 -5 -5 -10 -11 -10 -5 0 -7 5 -4 10 3 6 8
10 11 10 2 0 4 -4 4 -10z m595 0 c3 -5 1 -10 -4 -10 -6 0 -11 5 -11 10 0 6 2
10 4 10 3 0 8 -4 11 -10z m295 0 c0 -5 -4 -10 -10 -10 -5 0 -10 5 -10 10 0 6
5 10 10 10 6 0 10 -4 10 -10z m-1290 -8 c0 -10 -50 -35 -57 -28 -3 2 8 11 24
20 34 18 33 18 33 8z m550 -22 c0 -5 -4 -10 -10 -10 -5 0 -10 5 -10 10 0 6 5
10 10 10 6 0 10 -4 10 -10z m325 -9 c-8 -13 -35 -15 -35 -2 0 5 8 11 18 13 21
5 26 2 17 -11z m-609 -18 c-10 -10 -19 5 -10 18 6 11 8 11 12 0 2 -7 1 -15 -2
-18z m954 7 c0 -5 -4 -10 -10 -10 -5 0 -10 5 -10 10 0 6 5 10 10 10 6 0 10 -4
10 -10z m-1290 -10 c0 -5 -4 -10 -9 -10 -6 0 -13 5 -16 10 -3 6 1 10 9 10 9 0
16 -4 16 -10z m387 -36 c-9 -10 -38 16 -31 28 4 6 13 4 22 -6 9 -8 13 -19 9
-22z m236 23 c4 -10 -3 -12 -24 -9 -16 2 -26 8 -23 13 8 14 41 11 47 -4z
m-413 -28 c0 -14 -37 -10 -43 4 -4 10 2 13 19 9 13 -2 24 -8 24 -13z m780 11
c0 -5 -5 -10 -11 -10 -5 0 -7 5 -4 10 3 6 8 10 11 10 2 0 4 -4 4 -10z m580 0
c0 -5 -5 -10 -11 -10 -5 0 -7 5 -4 10 3 6 8 10 11 10 2 0 4 -4 4 -10z m-1120
-20 c0 -5 -7 -10 -15 -10 -8 0 -15 5 -15 10 0 6 7 10 15 10 8 0 15 -4 15 -10z
m987 -12 c-3 -8 -6 -5 -6 6 -1 11 2 17 5 13 3 -3 4 -12 1 -19z m-77 -18 c8 -5
11 -12 8 -16 -4 -3 -14 1 -23 10 -18 17 -9 21 15 6z m-1380 -14 c0 -11 -19
-15 -25 -6 -3 5 1 10 9 10 9 0 16 -2 16 -4z m360 -11 c0 -8 -4 -15 -10 -15 -5
0 -10 7 -10 15 0 8 5 15 10 15 6 0 10 -7 10 -15z m38 4 c-2 -6 -8 -10 -13 -10
-5 0 -11 4 -13 10 -2 6 4 11 13 11 9 0 15 -5 13 -11z m252 -4 c0 -8 -4 -15
-10 -15 -5 0 -10 7 -10 15 0 8 5 15 10 15 6 0 10 -7 10 -15z m260 11 c0 -3 -4
-8 -10 -11 -5 -3 -10 -1 -10 4 0 6 5 11 10 11 6 0 10 -2 10 -4z m60 -12 c0 -2
-7 -4 -15 -4 -8 0 -15 4 -15 10 0 5 7 7 15 4 8 -4 15 -8 15 -10z m-862 -13 c3
-8 -1 -12 -9 -9 -7 2 -15 10 -17 17 -3 8 1 12 9 9 7 -2 15 -10 17 -17z m392
-2 c0 -5 -4 -9 -10 -9 -5 0 -10 7 -10 16 0 8 5 12 10 9 6 -3 10 -10 10 -16z
m800 11 c0 -5 -5 -10 -11 -10 -5 0 -7 5 -4 10 3 6 8 10 11 10 2 0 4 -4 4 -10z
m-990 -9 c0 -12 -20 -25 -27 -18 -7 7 6 27 18 27 5 0 9 -4 9 -9z m135 0 c7
-12 -12 -24 -25 -16 -11 7 -4 25 10 25 5 0 11 -4 15 -9z m290 -20 c-9 -16 -25
-3 -18 15 4 10 9 12 15 6 6 -6 7 -15 3 -21z m965 -20 c0 -11 -4 -9 -15 5 -8
10 -15 25 -15 33 0 11 4 9 15 -5 8 -10 15 -25 15 -33z m-555 21 c-3 -3 -11 0
-18 7 -9 10 -8 11 6 5 10 -3 15 -9 12 -12z m-955 -1 c0 -12 -20 -25 -27 -18
-7 7 6 27 18 27 5 0 9 -4 9 -9z m-266 -16 c11 -8 16 -18 12 -22 -3 -4 -16 3
-28 15 -25 25 -13 29 16 7z m1091 5 c3 -5 1 -10 -4 -10 -6 0 -11 5 -11 10 0 6
2 10 4 10 3 0 8 -4 11 -10z m105 0 c0 -5 -4 -10 -10 -10 -5 0 -10 5 -10 10 0
6 5 10 10 10 6 0 10 -4 10 -10z m510 0 c0 -5 -4 -10 -10 -10 -5 0 -10 5 -10
10 0 6 5 10 10 10 6 0 10 -4 10 -10z m-1525 -9 c3 -5 1 -12 -5 -16 -5 -3 -10
1 -10 9 0 18 6 21 15 7z m1708 2 c-7 -2 -19 -2 -25 0 -7 3 -2 5 12 5 14 0 19
-2 13 -5z m-1083 -13 c0 -5 -9 -10 -20 -10 -11 0 -20 5 -20 10 0 6 9 10 20 10
11 0 20 -4 20 -10z m700 0 c0 -5 -7 -10 -16 -10 -8 0 -12 5 -9 10 3 6 10 10
16 10 5 0 9 -4 9 -10z m-1410 -30 c0 -5 -4 -10 -10 -10 -5 0 -10 5 -10 10 0 6
5 10 10 10 6 0 10 -4 10 -10z m100 -40 c0 -5 8 -10 18 -11 14 0 14 -2 -3 -8
-12 -5 -23 -4 -27 3 -11 16 -10 26 2 26 6 0 10 -4 10 -10z m820 -4 c0 -19 -23
-33 -28 -18 -2 7 -10 12 -18 12 -8 0 -14 5 -14 10 0 6 14 10 30 10 19 0 30 -5
30 -14z m190 10 c0 -3 -4 -8 -10 -11 -5 -3 -10 -1 -10 4 0 6 5 11 10 11 6 0
10 -2 10 -4z m-1060 -37 c0 -5 -7 -9 -15 -9 -15 0 -20 12 -9 23 8 8 24 -1 24
-14z m980 13 c0 -5 -9 -17 -20 -27 -23 -21 -26 -14 -8 15 13 20 28 27 28 12z
m-1010 -42 c0 -5 -7 -10 -15 -10 -8 0 -15 5 -15 10 0 6 7 10 15 10 8 0 15 -4
15 -10z m910 0 c0 -5 -4 -10 -10 -10 -5 0 -10 5 -10 10 0 6 5 10 10 10 6 0 10
-4 10 -10z m-1020 -25 c0 -8 -4 -15 -10 -15 -5 0 -10 7 -10 15 0 8 5 15 10 15
6 0 10 -7 10 -15z m-69 -28 c-8 -8 -11 -7 -11 4 0 20 13 34 18 19 3 -7 -1 -17
-7 -23z m-71 13 c0 -5 -7 -10 -15 -10 -8 0 -15 5 -15 10 0 6 7 10 15 10 8 0
15 -4 15 -10z m130 -59 c0 -12 -20 -25 -27 -18 -7 7 6 27 18 27 5 0 9 -4 9 -9z
m-143 -17 c-3 -3 -12 -4 -19 -1 -8 3 -5 6 6 6 11 1 17 -2 13 -5z m83 -4 c0 -5
-4 -10 -10 -10 -5 0 -10 5 -10 10 0 6 5 10 10 10 6 0 10 -4 10 -10z m60 -20
c0 -5 -4 -10 -10 -10 -5 0 -10 5 -10 10 0 6 5 10 10 10 6 0 10 -4 10 -10z
m-90 -40 c0 -5 -4 -10 -10 -10 -5 0 -10 5 -10 10 0 6 5 10 10 10 6 0 10 -4 10
-10z m-220 -40 c0 -5 -4 -10 -10 -10 -5 0 -10 5 -10 10 0 6 5 10 10 10 6 0 10
-4 10 -10z m330 0 c0 -5 -4 -10 -10 -10 -5 0 -10 5 -10 10 0 6 5 10 10 10 6 0
10 -4 10 -10z m-165 -10 c3 -5 1 -10 -4 -10 -6 0 -11 5 -11 10 0 6 2 10 4 10
3 0 8 -4 11 -10z m-165 -50 c-8 -5 -18 -6 -24 -3 -5 4 -1 10 10 13 24 9 34 2
14 -10z m0 -40 c0 -5 -7 -7 -15 -4 -8 4 -12 10 -9 15 6 11 24 2 24 -11z m100
0 c0 -5 -4 -10 -10 -10 -5 0 -10 5 -10 10 0 6 5 10 10 10 6 0 10 -4 10 -10z
m200 -24 c0 -3 -4 -8 -10 -11 -5 -3 -10 -1 -10 4 0 6 5 11 10 11 6 0 10 -2 10
-4z m-160 -48 c0 -13 -23 -5 -28 10 -2 7 2 10 12 6 9 -3 16 -11 16 -16z m97
-5 c3 -7 -3 -9 -16 -6 -12 3 -21 10 -21 15 0 13 32 6 37 -9z m-232 -123 c3 -5
1 -10 -4 -10 -6 0 -11 5 -11 10 0 6 2 10 4 10 3 0 8 -4 11 -10z m285 -30 c0
-5 -5 -10 -11 -10 -5 0 -7 5 -4 10 3 6 8 10 11 10 2 0 4 -4 4 -10z m-125 -9
c3 -5 1 -12 -5 -16 -5 -3 -10 1 -10 9 0 18 6 21 15 7z m-60 -11 c3 -5 -3 -10
-14 -10 -12 0 -21 5 -21 10 0 6 6 10 14 10 8 0 18 -4 21 -10z m-135 -10 c0 -5
-5 -10 -11 -10 -5 0 -7 5 -4 10 3 6 8 10 11 10 2 0 4 -4 4 -10z m300 -10 c0
-5 -4 -10 -10 -10 -5 0 -10 5 -10 10 0 6 5 10 10 10 6 0 10 -4 10 -10z m70
-110 c0 -5 -4 -10 -10 -10 -5 0 -10 5 -10 10 0 6 5 10 10 10 6 0 10 -4 10 -10z
m-320 -80 c0 -5 -5 -10 -11 -10 -5 0 -7 5 -4 10 3 6 8 10 11 10 2 0 4 -4 4
-10z m170 -40 c0 -5 -4 -10 -9 -10 -6 0 -13 5 -16 10 -3 6 1 10 9 10 9 0 16
-4 16 -10z m-120 -65 c0 -17 -2 -18 -24 -9 -23 9 -20 24 4 24 11 0 20 -7 20
-15z m-170 -25 c0 -5 -4 -10 -10 -10 -5 0 -10 5 -10 10 0 6 5 10 10 10 6 0 10
-4 10 -10z m330 0 c0 -5 -4 -10 -10 -10 -5 0 -10 5 -10 10 0 6 5 10 10 10 6 0
10 -4 10 -10z m-300 -90 c0 -5 -2 -10 -4 -10 -3 0 -8 5 -11 10 -3 6 -1 10 4
10 6 0 11 -4 11 -10z m200 -50 c0 -5 -9 -10 -21 -10 -11 0 -17 5 -14 10 3 6
13 10 21 10 8 0 14 -4 14 -10z m20 -50 c0 -5 -4 -10 -10 -10 -5 0 -10 5 -10
10 0 6 5 10 10 10 6 0 10 -4 10 -10z m-100 -110 c0 -5 -4 -10 -10 -10 -5 0
-10 5 -10 10 0 6 5 10 10 10 6 0 10 -4 10 -10z m0 -160 c0 -5 -7 -10 -15 -10
-8 0 -15 5 -15 10 0 6 7 10 15 10 8 0 15 -4 15 -10z m-80 -52 c0 -13 -23 -5
-28 10 -2 7 2 10 12 6 9 -3 16 -11 16 -16z m14 -97 c3 -5 0 -11 -8 -14 -15 -6
-26 1 -26 15 0 11 27 10 34 -1z"/>
<path d="M3013 2130 c-4 -14 -14 -20 -34 -20 -52 0 -74 -67 -34 -106 6 -7 27
-21 46 -31 88 -48 110 -73 66 -73 -13 0 -31 -8 -40 -18 -20 -22 -23 -62 -4
-62 6 0 23 -9 37 -20 14 -11 33 -20 42 -20 15 0 68 -43 68 -55 0 -9 -39 -5
-45 5 -12 19 -25 10 -25 -18 0 -34 -36 -72 -68 -72 -26 0 -29 -25 -10 -76 10
-27 9 -37 -6 -59 -9 -14 -28 -31 -40 -37 -16 -7 -22 -16 -19 -28 4 -16 9 -17
28 -8 54 24 67 -18 19 -62 -17 -17 -30 -21 -53 -17 -35 7 -63 -14 -54 -41 3
-9 18 -30 34 -47 15 -16 29 -43 31 -60 2 -20 11 -33 26 -40 12 -5 22 -18 22
-27 0 -10 3 -17 8 -16 4 0 14 -1 22 -5 38 -15 109 -23 124 -15 38 22 59 108
47 197 0 5 -17 15 -37 21 -39 13 -40 25 -3 52 23 17 28 17 59 4 19 -8 34 -18
32 -22 -2 -5 1 -10 6 -12 10 -3 41 105 64 218 13 68 16 400 4 465 -5 25 -12
35 -26 35 -10 0 -22 6 -27 13 -5 8 -9 2 -13 -18 -4 -25 -10 -30 -43 -33 -26
-2 -37 1 -37 10 0 8 -25 26 -55 41 -30 14 -62 38 -71 52 -20 30 -34 32 -41 5z
m47 -59 c0 -6 -4 -13 -10 -16 -5 -3 -10 1 -10 9 0 9 5 16 10 16 6 0 10 -4 10
-9z m0 -41 c0 -5 -4 -10 -10 -10 -5 0 -10 5 -10 10 0 6 5 10 10 10 6 0 10 -4
10 -10z m191 -300 c-22 -23 -36 -30 -51 -25 -32 10 -23 33 23 54 55 26 69 11
28 -29z m-121 -420 c0 -5 -7 -10 -16 -10 -8 0 -12 5 -9 10 3 6 10 10 16 10 5
0 9 -4 9 -10z"/>
<path d="M2855 1977 c-80 -93 -105 -127 -105 -143 0 -11 -7 -29 -15 -41 -15
-21 -14 -23 11 -29 17 -4 29 -2 34 6 6 9 10 7 15 -9 7 -23 21 -28 28 -8 4 9 8
9 15 -2 6 -9 12 -10 16 -2 4 6 29 13 56 17 46 6 50 9 50 34 0 16 6 31 13 33 6
3 -2 6 -19 6 -24 1 -33 6 -37 24 -2 12 -7 29 -11 38 -4 9 2 25 14 39 11 13 20
28 20 34 0 16 -72 18 -85 3z"/>
<path d="M2618 1729 c-27 -15 -23 -43 5 -35 12 3 25 6 30 6 4 0 7 9 7 20 0 22
-15 25 -42 9z"/>
<path d="M2720 1692 c0 -4 9 -13 20 -20 18 -11 20 -10 20 8 0 13 -7 20 -20 20
-11 0 -20 -3 -20 -8z"/>
<path d="M2794 1651 c-4 -22 -14 -46 -23 -54 -14 -13 -62 -26 -117 -31 -11 -1
-27 -7 -35 -12 -7 -5 -23 -13 -33 -19 -25 -13 -41 -71 -25 -91 6 -8 27 -14 45
-14 19 0 34 -4 34 -9 0 -12 55 -21 90 -14 23 4 30 11 30 29 0 13 -4 24 -10 24
-5 0 -10 9 -10 20 0 28 35 26 72 -5 17 -14 36 -24 42 -22 6 2 13 25 16 51 5
37 2 50 -12 63 -10 9 -18 13 -18 8 0 -4 -7 -2 -15 5 -17 14 -20 50 -4 50 6 0
22 9 35 19 l25 19 -23 7 c-13 4 -31 9 -40 11 -14 4 -19 -3 -24 -35z"/>
<path d="M2557 1674 c-8 -8 1 -24 14 -24 5 0 9 7 9 15 0 15 -12 20 -23 9z"/>
<path d="M2600 1620 c-13 -8 -12 -10 3 -10 9 0 17 5 17 10 0 12 -1 12 -20 0z"/>
<path d="M2334 1462 c-17 -15 -48 -40 -69 -56 -33 -25 -36 -32 -32 -65 2 -20
0 -46 -4 -58 -12 -33 12 -48 48 -29 33 17 73 53 73 66 0 5 9 17 19 27 13 12
22 39 27 81 6 57 5 62 -12 62 -11 0 -33 -13 -50 -28z"/>
<path d="M2600 1374 c0 -10 7 -14 22 -12 32 5 35 28 4 28 -17 0 -26 -5 -26
-16z"/>
<path d="M2388 1278 c-35 -20 -38 -26 -37 -62 1 -23 3 -33 6 -23 2 9 12 17 22
17 24 0 61 41 61 68 0 27 -5 27 -52 0z"/>
<path d="M2587 1225 c-22 -22 -37 -46 -37 -60 0 -13 -12 -33 -28 -47 -15 -12
-28 -26 -30 -31 -1 -4 -8 -20 -17 -36 -13 -25 -13 -30 0 -35 9 -3 19 5 27 21
7 14 24 33 37 42 23 15 24 15 13 -5 -12 -23 -5 -124 9 -124 17 0 22 27 22 127
l-1 103 35 29 c20 16 32 34 29 40 -11 17 -20 13 -59 -24z"/>
<path d="M1930 1150 c0 -6 7 -27 15 -47 15 -35 14 -36 -15 -70 -17 -18 -30
-37 -30 -41 0 -11 33 -29 69 -37 28 -6 33 -5 28 8 -3 8 3 23 15 34 17 16 19
25 13 78 -4 38 -12 65 -22 73 -20 15 -73 16 -73 2z"/>
<path d="M2206 1124 c-9 -9 -25 -14 -36 -11 -11 3 -20 1 -20 -4 0 -14 46 -29
91 -29 38 0 40 2 37 28 -2 21 -9 28 -29 30 -15 2 -34 -4 -43 -14z"/>
<path d="M1695 1080 c-11 -5 -33 -9 -49 -9 -47 -1 -116 -47 -116 -76 0 -14 -4
-25 -8 -25 -4 0 -23 -29 -41 -65 -27 -52 -38 -65 -57 -65 -30 0 -33 33 -6 52
44 31 53 95 16 104 -24 6 -205 -48 -238 -72 -11 -8 -20 -25 -21 -40 0 -37 -38
-62 -109 -74 -33 -5 -62 -14 -66 -19 -3 -6 -38 -44 -78 -86 -40 -41 -70 -80
-67 -85 4 -6 11 -8 16 -4 5 3 9 2 8 -3 -4 -20 2 -24 18 -12 14 12 15 12 9 1
-7 -11 -4 -12 13 -3 12 7 21 21 21 35 0 25 17 36 56 36 14 0 27 7 31 15 9 26
83 55 137 55 28 0 63 6 78 14 33 17 67 11 90 -18 13 -16 26 -20 57 -17 38 2
41 1 41 -22 0 -28 -16 -37 -66 -37 -32 0 -35 2 -32 28 2 19 -2 27 -12 27 -16
0 -20 -46 -6 -78 7 -14 0 -20 -30 -34 -22 -9 -49 -17 -62 -17 -33 -2 -92 -70
-92 -107 0 -19 5 -29 15 -29 8 0 14 -5 12 -11 -3 -16 81 -51 89 -37 5 7 2 8
-7 3 -8 -5 6 12 30 36 44 44 45 44 116 44 45 0 78 -5 88 -13 13 -11 21 -11 46
2 35 19 67 21 76 5 11 -17 -2 -22 -49 -22 -29 0 -43 -4 -40 -12 5 -13 -37 -35
-66 -35 -23 0 -100 -38 -100 -50 0 -9 91 -35 192 -56 85 -17 348 -30 401 -20
32 6 37 11 37 34 0 15 -7 37 -15 49 -16 23 -28 23 -110 1 -66 -17 -122 -21
-144 -9 -15 9 -27 9 -42 1 -33 -18 -45 1 -44 70 l1 61 49 24 c54 28 73 30 109
13 17 -7 33 -8 47 -2 29 13 109 -6 109 -25 0 -8 3 -12 6 -8 12 12 43 -30 52
-70 13 -57 102 -143 102 -100 0 9 12 14 30 15 17 0 30 -3 30 -7 0 -5 11 -6 25
-3 14 2 22 8 19 13 -3 5 1 6 9 3 8 -3 18 0 22 5 3 6 12 8 18 5 7 -4 2 3 -10
15 -12 12 -20 28 -17 36 8 20 24 19 24 0 0 -9 12 -20 26 -25 34 -13 34 -13 34
9 0 15 9 20 45 23 25 2 45 0 45 -4 0 -19 197 74 240 114 11 10 24 18 30 18 5
0 10 3 10 8 0 4 16 16 35 26 19 10 32 23 28 29 -3 6 -1 7 4 4 22 -14 215 176
306 300 37 50 37 52 25 92 -10 32 -18 41 -36 41 -24 0 -75 -47 -67 -60 3 -5 2
-15 -1 -24 -10 -27 -145 -44 -144 -17 1 13 27 40 33 34 4 -3 7 -2 7 3 0 27
-23 32 -63 14 -38 -17 -43 -18 -59 -3 -10 9 -18 30 -18 47 0 24 -3 27 -10 16
-13 -20 -13 -70 0 -70 6 0 9 -25 9 -57 -2 -54 -4 -60 -40 -91 -26 -22 -39 -42
-39 -58 0 -14 -7 -27 -15 -30 -8 -3 -17 -14 -20 -24 -3 -11 -25 -22 -58 -31
-42 -11 -55 -20 -67 -46 -10 -21 -24 -33 -42 -35 -26 -4 -28 -2 -28 29 0 19
-4 32 -8 29 -11 -7 -36 -115 -33 -143 l2 -22 -53 20 c-29 10 -61 19 -70 19
-11 0 -18 7 -18 18 0 27 -40 59 -81 65 -24 3 -50 -1 -79 -14 -30 -13 -47 -16
-54 -9 -5 5 -21 11 -36 11 -20 1 -21 2 -5 6 33 8 65 44 65 74 0 17 8 32 24 43
32 21 41 63 21 104 -24 47 -12 88 26 96 28 5 29 8 29 60 0 30 -5 58 -11 61
-16 10 -49 -25 -49 -52 0 -12 -4 -23 -10 -23 -5 0 -10 -7 -10 -15 0 -9 -6 -18
-14 -21 -8 -3 -12 -13 -9 -24 3 -10 -1 -28 -7 -41 -10 -18 -10 -24 2 -33 12
-9 13 -14 3 -23 -10 -9 -17 -6 -34 13 -11 13 -30 24 -42 24 -19 0 -20 -4 -14
-39 5 -30 2 -44 -12 -60 -19 -23 -52 -28 -70 -10 -17 17 -51 1 -62 -29 -20
-57 -12 63 10 128 12 36 19 77 16 94 -9 52 -31 120 -44 134 -13 14 -58 15 -88
2z m-78 -216 c10 -26 -51 -127 -82 -137 -36 -12 -55 5 -37 33 6 11 12 33 12
49 0 52 90 98 107 55z m-291 -41 c-11 -11 -19 6 -11 24 8 17 8 17 12 0 3 -10
2 -21 -1 -24z m657 -157 c24 -18 22 -21 -19 -23 -35 -2 -70 18 -57 31 11 11
57 6 76 -8z"/>
<path d="M2185 940 c-16 -7 -13 -9 18 -9 20 -1 37 4 37 9 0 12 -27 12 -55 0z"/>
<path d="M2160 859 c0 -10 -5 -21 -10 -24 -6 -3 -8 -29 -5 -58 2 -29 4 -57 5
-63 0 -16 65 -48 83 -41 10 4 13 13 10 26 -4 16 3 25 31 42 20 11 36 27 36 33
0 19 -35 47 -95 76 -49 24 -55 25 -55 9z m50 -111 c0 -5 -4 -8 -10 -8 -5 0
-10 10 -10 23 0 18 2 19 10 7 5 -8 10 -18 10 -22z"/>
<path d="M1000 600 c0 -5 4 -10 9 -10 6 0 13 5 16 10 3 6 -1 10 -9 10 -9 0
-16 -4 -16 -10z"/>
<path d="M1012 578 c-7 -7 -12 -17 -12 -24 0 -7 -5 -14 -11 -16 -6 -2 0 -12
13 -23 15 -13 18 -14 10 -3 -9 11 -10 18 -2 23 5 3 10 1 10 -4 0 -6 4 -11 8
-11 4 0 9 16 10 35 3 36 -5 44 -26 23z"/>
<path d="M2230 294 c-58 -13 -130 -27 -160 -29 -30 -3 -96 -10 -147 -15 -121
-13 -350 -13 -358 0 -3 6 -14 10 -23 10 -9 0 0 -9 21 -20 69 -37 407 -43 529
-9 40 12 81 22 91 24 36 8 57 16 57 24 0 5 21 11 48 15 45 6 99 27 62 25 -8
-1 -62 -12 -120 -25z"/>
</g>
</svg>
